<svg xmlns="http://www.w3.org/2000/svg" width="332.463" height="85.353" viewBox="0 0 332.463 85.353">
  <g id="Group_271" data-name="Group 271" transform="translate(-168.344 -188.698)">
    <path id="Path_771" data-name="Path 771" d="M168.344,224.19c0-9.589,6.031-16.1,14.926-16.1,6.942,0,11.5,2.693,13.45,8.461l-6.768,1.257c-1.172-2.647-3.341-3.861-6.6-3.861-4.9,0-8.113,4.035-8.113,10.326,0,6.335,3.167,10.282,8.2,10.282,4.3,0,7.159-2.473,7.419-7.2h-7.506v-5.295h14.537c.087.955.087,1.822.087,2.69,0,9.676-5.64,15.577-14.839,15.577C174.114,240.33,168.344,234,168.344,224.19Z" transform="translate(0 -6.581)" fill="#002d72"/>
    <path id="Path_772" data-name="Path 772" d="M215.674,230.962c0-8.331,4.816-12.886,10.978-12.886,3.515,0,6.682,1.735,7.94,4.685v-4.208h6.6v24.775h-6.6v-4.034c-1.215,2.864-4.425,4.643-7.9,4.643C220.532,243.935,215.674,239.294,215.674,230.962Zm19.134,0c0-4.643-2.6-7.42-6.291-7.42-3.645,0-6.248,2.733-6.248,7.42,0,4.729,2.6,7.463,6.291,7.463,3.644,0,6.248-2.777,6.248-7.463Z" transform="translate(-16.059 -9.968)" fill="#002d72"/>
    <path id="Path_773" data-name="Path 773" d="M258.949,218.6h6.6v3.731c.868-2.3,3.428-4.6,8.374-4.035l-.651,6.248c-4.947-.911-7.723,1.388-7.723,7.159v11.715h-6.6Z" transform="translate(-30.743 -10.013)" fill="#002d72"/>
    <path id="Path_774" data-name="Path 774" d="M280.487,227.062c0-8.331,4.816-12.886,10.977-12.886,3.515,0,6.725,1.735,7.94,4.686V206.583H306V239.43h-6.6v-4.036c-1.216,2.863-4.425,4.643-7.9,4.643C285.346,240.035,280.487,235.392,280.487,227.062Zm19.134,0c0-4.643-2.6-7.42-6.291-7.42-3.645,0-6.248,2.733-6.248,7.42,0,4.729,2.6,7.463,6.291,7.463S299.621,231.748,299.621,227.062Z" transform="translate(-38.051 -6.068)" fill="#002d72"/>
    <path id="Path_775" data-name="Path 775" d="M322.373,230.962c0-7.637,5.2-12.886,12.712-12.886,8.2,0,13.016,5.727,12.236,14.4H328.968c.13,4.035,2.558,6.378,6.507,6.378,2.82,0,4.686-1.041,5.6-3.081l6.031.737c-1.779,4.816-5.814,7.333-11.8,7.333C327.493,243.848,322.373,238.728,322.373,230.962Zm18.917-2.82c-.26-3.3-2.517-5.423-6.031-5.423-3.385,0-5.771,1.909-6.162,5.423Z" transform="translate(-52.263 -9.968)" fill="#002d72"/>
    <path id="Path_776" data-name="Path 776" d="M363.415,218.554h6.6v3.994c1.128-2.735,3.9-4.469,7.68-4.469,6.638,0,9.632,3.817,9.632,11.628v13.667h-6.6V230.316c0-4.557-1.691-6.639-5.38-6.639-3.818,0-5.336,2.429-5.336,7.029v12.67h-6.6Z" transform="translate(-66.188 -9.969)" fill="#002d72"/>
    <path id="Path_777" data-name="Path 777" d="M457.742,245.063l6.291-1.432a6.037,6.037,0,0,0,5.944,3.688c3.991,0,6.16-2.04,6.16-7.072V237.9c-1.214,2.951-4.425,4.3-7.9,4.3-6.2,0-11.021-4.209-11.021-12.019,0-7.766,4.773-11.975,10.977-11.975,3.514,0,6.725,1.346,7.94,4.382v-3.994h6.6V239.03c0,9.328-4.252,13.233-12.8,13.233C463.642,252.265,459.3,249.662,457.742,245.063Zm18.57-14.882c0-4.469-2.561-7.159-6.291-7.159-3.645,0-6.248,2.692-6.248,7.159,0,4.6,2.6,7.2,6.291,7.2s6.248-2.646,6.248-7.2Z" transform="translate(-98.017 -10.012)" fill="#002d72"/>
    <path id="Path_778" data-name="Path 778" d="M506.524,227.062c0-8.721,5.553-12.886,11.671-12.886,4.209,0,7.984,2.083,9.5,6.2v-13.8h3.428V239.43H527.7v-5.557c-1.518,4.078-5.251,6.162-9.459,6.162C512.077,240.035,506.524,235.869,506.524,227.062Zm21.26,0c0-6.074-3.558-9.849-8.982-9.849-5.336,0-8.894,3.731-8.894,9.849,0,6.162,3.559,9.936,8.982,9.936C524.269,237,527.784,233.179,527.784,227.062Z" transform="translate(-114.746 -6.068)" fill="#002d72"/>
    <path id="Path_779" data-name="Path 779" d="M547.747,208.969a1.96,1.96,0,0,1,1.92-2c.054,0,.108,0,.163,0a2,2,0,1,1,.317,3.994,2.119,2.119,0,0,1-.317,0,1.96,1.96,0,0,1-2.079-1.833C547.747,209.079,547.746,209.024,547.747,208.969Zm.391,5.814h3.341V239.6h-3.341Z" transform="translate(-128.733 -6.199)" fill="#002d72"/>
    <path id="Path_780" data-name="Path 780" d="M557.712,218.67h3.383v4.513c1.041-2.951,3.687-5.423,9.024-4.6l-.434,3.34c-6.031-1.128-8.59,2.43-8.59,8.721v12.843H557.71Z" transform="translate(-132.113 -10.086)" fill="#002d72"/>
    <path id="Path_781" data-name="Path 781" d="M573.213,230.962c0-7.637,5.033-12.886,12.365-12.886,7.68,0,12.409,5.467,11.889,13.537H576.595c.13,5.77,3.645,9.244,9.244,9.244,3.949,0,6.507-1.475,8.069-4.3l3.124.694c-2.126,4.3-5.814,6.6-11.237,6.6C578.157,243.848,573.213,238.728,573.213,230.962Zm21-2.213c-.3-4.772-3.514-7.808-8.59-7.808-4.859,0-8.287,2.907-8.894,7.808Z" transform="translate(-137.374 -9.968)" fill="#002d72"/>
    <path id="Path_782" data-name="Path 782" d="M612.348,230.962c0-7.506,5.033-12.886,12.1-12.886,5.771,0,9.5,2.69,11.325,7.9l-2.994.737a8.162,8.162,0,0,0-8.243-5.6c-5.163,0-8.808,4.035-8.808,9.849s3.645,9.85,8.808,9.85a8.341,8.341,0,0,0,8.2-5.6l2.994.737c-1.649,4.99-5.683,7.9-11.281,7.9C617.38,243.848,612.348,238.468,612.348,230.962Z" transform="translate(-150.652 -9.968)" fill="#002d72"/>
    <path id="Path_783" data-name="Path 783" d="M650.021,230.742V218.811h-3.689v-2.777h3.689v-4.642l3.471-.738v5.38h7.767v2.777h-7.767v11.628c0,5.9,1.432,7.9,5.64,7.9a11.13,11.13,0,0,0,2-.217l.477,2.776a17.443,17.443,0,0,1-2.863.3C652.623,241.2,650.021,238.379,650.021,230.742Z" transform="translate(-162.183 -7.45)" fill="#002d72"/>
    <g id="Group_228" data-name="Group 228" transform="translate(323.856 208.105)">
      <path id="Path_785" data-name="Path 785" d="M403.72,230.688v16.4h6.552v-18.05c-2.937,1.019-4.959,1.5-4.959,1.5S404.637,230.607,403.72,230.688Z" transform="translate(-403.72 -221.794)" fill="#002d72"/>
      <path id="Path_786" data-name="Path 786" d="M432.506,218.075a9.332,9.332,0,0,0-4.939,1.278l-.413.272a6.708,6.708,0,0,0-2.327,2.916v-1.506a55.886,55.886,0,0,1-6.6,3.145v19.187h6.6V230.7c0-4.6,1.518-7.029,5.336-7.029,3.687,0,5.379,2.083,5.379,6.639v13.058h6.6V229.7C442.137,221.892,439.144,218.075,432.506,218.075Z" transform="translate(-408.643 -218.072)" fill="#002d72"/>
      <path id="Path_787" data-name="Path 787" d="M432.148,220.011c-.141.087-.28.177-.413.272C431.874,220.193,432.014,220.1,432.148,220.011Z" transform="translate(-413.226 -218.73)" fill="#002d72"/>
    </g>
    <g id="Group_260" data-name="Group 260" transform="translate(317.62 188.698)">
      <path id="Path_819" data-name="Path 819" d="M403.525,226.35c.021-.019.036-.04.056-.059-.075.036-.147.074-.227.106-.956.385-.817.462-.26.408A3.518,3.518,0,0,1,403.525,226.35Z" transform="translate(-397.123 -201.453)" fill="#43b02a"/>
      <path id="Path_820" data-name="Path 820" d="M404.018,207.89c.338-1.741-1.656-4.27-.741-6.444s3.542-1.149,3.542-1.149a6.378,6.378,0,0,1-1.4-2.78c-.287-1.2.365-2.223,1.16-3.623h0c-3.077-3.159-8.058-7.065-11.859-4.2-1.319,1.369.689.674,1.148,3.383s-.409,4.476.959,5.742a7.817,7.817,0,0,0,2.824,1.687s-3.076.189-2.8,2.278,3.544,3.346,4.145,4.867c.594,1.5,1.613,4.039-.252,5.877C403.154,212.4,403.691,209.575,404.018,207.89Z" transform="translate(-394.281 -188.698)" fill="#43b02a"/>
      <path id="Path_821" data-name="Path 821" d="M403.3,227.039c-.149.211.073.142.459-.059l-.011,0C403.584,227.006,403.433,227.026,403.3,227.039Z" transform="translate(-397.327 -201.687)" fill="#43b02a"/>
      <path id="Path_822" data-name="Path 822" d="M403.752,226.351c.023-.022.04-.045.063-.067l-.01,0c-.02.02-.035.04-.055.059a3.519,3.519,0,0,0-.431.455h.005A3.489,3.489,0,0,1,403.752,226.351Z" transform="translate(-397.348 -201.451)" fill="#43b02a"/>
    </g>
    <path id="Path_816" data-name="Path 816" d="M420.978,203.329s1.763-15.185-5.594-14.069c-1.9.589.042.953-1.477,3.64s-3.357,3.859-3.226,5.686a6.241,6.241,0,0,0,.9,2.93s-2.371-1.352-3.6.681.293,4.792-.307,6.471-1.607,4.536-4.293,5.239,2.86.2,2.86.2S419.584,211.155,420.978,203.329Z" transform="translate(-79.502 -0.171)" fill="#43b02a"/>
    <path id="Path_794" data-name="Path 794" d="M358.947,296.272a2.18,2.18,0,0,1-1.68-.648,6,6,0,0,1-1.413-2.167,17.633,17.633,0,0,1-1-3.59,31.369,31.369,0,0,1-.447-4.948,32.812,32.812,0,0,1,.134-3.806q.186-1.954.476-3.791t.661-3.476q.372-1.64.7-2.913t.552-2.049c.147-.517.236-.823.272-.907a1.068,1.068,0,0,1,.32-.359,2.85,2.85,0,0,1,.583-.351,5,5,0,0,1,.745-.272,4.269,4.269,0,0,1,.772-.147,4.791,4.791,0,0,1,.583-.021,3.928,3.928,0,0,1,.5.05,1.4,1.4,0,0,1,.445.15,2.525,2.525,0,0,0-.6.729c-.188.321-.354.666-.511,1a10.947,10.947,0,0,0-.5,1.273q-.494,1.365-.994,3.3t-.9,4.094q-.4,2.161-.641,4.371a32.522,32.522,0,0,0-.217,4.128,18.51,18.51,0,0,0,.8,5.7q.686,1.841,1.615,1.757a1.385,1.385,0,0,0,.91-.68,9.582,9.582,0,0,0,.9-1.623q.443-.984.852-2.185t.763-2.365q.208-.742.449-1.66t.474-1.885q.236-.965.458-1.912a14.425,14.425,0,0,0,.4-1.718c.037-.528-.1-1.286-.142-1.986s-.057-1.411-.049-2.136.045-1.44.1-2.149a12.244,12.244,0,0,1,.321-1.962,6.531,6.531,0,0,1,1.22-2.607,2.447,2.447,0,0,1,1.364-.95.629.629,0,0,1,.643.324,2.03,2.03,0,0,1,.237.987,16.991,16.991,0,0,1-.109,1.975q-.118,1.158-.3,2.478t-.43,2.679l-.482,2.6a48.826,48.826,0,0,0-.166,5.883,33.776,33.776,0,0,0,.43,4.462,10.562,10.562,0,0,0,.819,2.827q.493.979,1.064.931.663-.056,1.321-1.056a12.979,12.979,0,0,0,1.253-2.605,36.5,36.5,0,0,0,1.111-3.632q.517-2.025.908-4.148t.591-4.168a34.561,34.561,0,0,0,.19-3.68c-.008-.9-.053-1.787-.124-2.663q-.089-1.125-.285-2.4a14.715,14.715,0,0,0-.524-2.285,3.064,3.064,0,0,1,1.025-.649,6.475,6.475,0,0,1,.717-.278,4.581,4.581,0,0,1,.512-.135c.161-.032.323-.062.485-.086a1.363,1.363,0,0,1,.463.011,4.16,4.16,0,0,1,.349,1.1c.087.454.161.9.213,1.335a14.14,14.14,0,0,1,.1,1.629,59.668,59.668,0,0,1-.32,6.565,60.409,60.409,0,0,1-.957,6.162,46.183,46.183,0,0,1-1.466,5.4,31.781,31.781,0,0,1-1.8,4.316,12.6,12.6,0,0,1-1.969,2.9,3.27,3.27,0,0,1-2.007,1.145,1.958,1.958,0,0,1-1.763-.777A6.9,6.9,0,0,1,365.8,292.5a17.1,17.1,0,0,1-.682-2.945q-.229-1.586-.314-2.93-.542,1.81-1.2,3.5a24.287,24.287,0,0,1-1.4,3.035,10.4,10.4,0,0,1-1.562,2.186A2.726,2.726,0,0,1,358.947,296.272Z" transform="translate(-63.129 -25.863)" fill="#43b02a"/>
    <path id="Path_795" data-name="Path 795" d="M402.035,286.12a24.01,24.01,0,0,1-1.868,2.82,19.182,19.182,0,0,1-2.265,2.492,13.367,13.367,0,0,1-2.5,1.837,6.215,6.215,0,0,1-2.561.824,3.7,3.7,0,0,1-1.458-.218,4.1,4.1,0,0,1-1.481-.907,5.016,5.016,0,0,1-1.151-1.7,6.337,6.337,0,0,1-.437-2.638,8.443,8.443,0,0,1,.56-2.764,12.315,12.315,0,0,1,1.4-2.735,9.208,9.208,0,0,1,2.006-2.135,4.395,4.395,0,0,1,2.357-.965,2.112,2.112,0,0,1,1.717.47,1.932,1.932,0,0,1,.565,1.436,4.534,4.534,0,0,1-.4,1.821,7.252,7.252,0,0,1-.938,1.548,10.848,10.848,0,0,1-1.2,1.283c-.427.389-.833.749-1.214,1.067-.416.347-.822.676-1.2.988s-.714.6-1,.848a3.491,3.491,0,0,0,.373,1.29,2.605,2.605,0,0,0,.67.813,2.141,2.141,0,0,0,.867.4,3.288,3.288,0,0,0,.962.068,4.187,4.187,0,0,0,2.094-.833A14.873,14.873,0,0,0,398,289.444a25.039,25.039,0,0,0,1.853-2.131q.848-1.1,1.4-1.892a.821.821,0,0,1,.419-.328.418.418,0,0,1,.368.037.463.463,0,0,1,.163.366A1.215,1.215,0,0,1,402.035,286.12Zm-8.122-4.246a1.545,1.545,0,0,0-.837.442,4.581,4.581,0,0,0-.9,1.152,9.455,9.455,0,0,0-.777,1.79,10.191,10.191,0,0,0-.457,2.378c.228-.207.475-.418.743-.64s.534-.455.8-.706a8.614,8.614,0,0,0,1.681-1.951,3.21,3.21,0,0,0,.476-1.387,1.315,1.315,0,0,0-.186-.853.59.59,0,0,0-.536-.227Z" transform="translate(-74.633 -30.979)" fill="#43b02a"/>
    <path id="Path_796" data-name="Path 796" d="M414.873,286.476q.94-5.875,1.515-9.433c.381-2.371.681-4.185.879-5.43.234-1.473.407-2.523.472-3.078.045-.387.057-.792.077-1.167a9.209,9.209,0,0,0-.007-1.036,4.722,4.722,0,0,0-.155-.964,2.251,2.251,0,0,1,.519-.284c.19-.075.381-.135.556-.194.216-.069.441-.143.662-.2a3.367,3.367,0,0,1,.608-.1,2.2,2.2,0,0,1,.462.017.348.348,0,0,1,.288.187.777.777,0,0,1,.208.614,7.866,7.866,0,0,1-.014.975c-.039.387-.122.835-.195,1.3q-.28,1.369-.759,3.943-.409,2.194-1.1,5.977t-1.7,9.536a.825.825,0,0,1-.348.244,1.4,1.4,0,0,1-.389.089,2.251,2.251,0,0,1-.454,0,1.382,1.382,0,0,1-.435-.16,1.893,1.893,0,0,1-.384-.3A1.316,1.316,0,0,1,414.873,286.476Z" transform="translate(-83.648 -25.748)" fill="#43b02a"/>
    <path id="Path_797" data-name="Path 797" d="M431.257,285.543a22.917,22.917,0,0,0-.688,2.269,7.4,7.4,0,0,1-1.122,1.857,5.356,5.356,0,0,1-1.53,1.269,4.5,4.5,0,0,1-1.923.538,3.133,3.133,0,0,1-1.981-.426,3.38,3.38,0,0,1-1.144-1.294,5.659,5.659,0,0,1-.535-1.757q-.138-.964-.192-1.81a7.25,7.25,0,0,1,.054-1.323,12.352,12.352,0,0,1,.286-1.495,10.491,10.491,0,0,1,.528-1.541,7.318,7.318,0,0,1,.811-1.432,2.584,2.584,0,0,1,.5-.973,3.339,3.339,0,0,1,.841-.727,4.584,4.584,0,0,1,1.055-.472,4.729,4.729,0,0,1,1.117-.21.472.472,0,0,1,.169.021.962.962,0,0,0,.172.054,3.822,3.822,0,0,1,2.213,1.032,4.858,4.858,0,0,1,1.039,1.368,4.965,4.965,0,0,1,.516,2.058c.01.168.011.371.005.612s-.015.445-.025.614a15.447,15.447,0,0,0,1.416-.773q.734-.449,1.423-.942t1.269-1a11.409,11.409,0,0,0,.926-.9,1.027,1.027,0,0,1,.5-.341.269.269,0,0,1,.31.108.607.607,0,0,1,.054.436,1.609,1.609,0,0,1-.3.646,9.821,9.821,0,0,1-.734.793q-.592.6-1.4,1.3t-1.777,1.388C432.469,284.95,431.464,285.289,431.257,285.543Zm-7.011,1.175a9.9,9.9,0,0,0,.13,1.108,3.365,3.365,0,0,0,.3.954,1.918,1.918,0,0,0,.527.659,1.154,1.154,0,0,0,.8.218,1.948,1.948,0,0,0,.982-.327,3.223,3.223,0,0,0,.774-.738,5.162,5.162,0,0,0,.593-1.009,8.877,8.877,0,0,0,.431-1.171c-.14.03-.276.053-.4.071s-.277.032-.438.042a2.99,2.99,0,0,1-2.026-.583,4.651,4.651,0,0,1-1.4-1.721c-.094.449-.169.879-.225,1.3a6.242,6.242,0,0,0-.049,1.2Zm1.6-5.626a1.936,1.936,0,0,0-.055.6,9.254,9.254,0,0,0,.125,1.044,2.617,2.617,0,0,0,.363.968,1.925,1.925,0,0,0,.819.688,3.021,3.021,0,0,0,1.487.209,2.935,2.935,0,0,0,.3-.034q.152-.025.3-.064c.045-.274.085-.523.123-.746a3.185,3.185,0,0,0,.042-.583,8.359,8.359,0,0,0-.071-1.22,5.5,5.5,0,0,0-.3-1.129,2.743,2.743,0,0,0-.476-.821.776.776,0,0,0-.643-.291,2.086,2.086,0,0,0-1.089.4A3.734,3.734,0,0,0,425.847,281.091Z" transform="translate(-86.112 -30.306)" fill="#43b02a"/>
    <path id="Path_798" data-name="Path 798" d="M449.791,283.845q-.728,1.231-1.5,2.4t-1.5,2.1a13.253,13.253,0,0,1-1.344,1.516,1.866,1.866,0,0,1-1.013.6,1.763,1.763,0,0,1-1.576-.839,7.373,7.373,0,0,1-1.032-2.235,16.333,16.333,0,0,1-.556-2.889,21.019,21.019,0,0,1-.14-2.771,16.983,16.983,0,0,1,.164-1.971,4.061,4.061,0,0,1,.314-1.164,1.543,1.543,0,0,1,.515-.625,3.088,3.088,0,0,1,.788-.357,2.823,2.823,0,0,1,.482-.121,1.606,1.606,0,0,1,.5-.012.567.567,0,0,1,.359.184.546.546,0,0,1,.057.468c-.036.18-.082.471-.153.84s-.145.788-.221,1.252-.147.95-.21,1.456-.106.992-.118,1.45a11.513,11.513,0,0,0,.114,2.083,8.352,8.352,0,0,0,.354,1.488,3.444,3.444,0,0,0,.444.9c.153.2.269.3.349.295q.151-.007.538-.452a13.4,13.4,0,0,0,.879-1.162q.494-.717,1.036-1.654t1.009-1.937a2.943,2.943,0,0,1-.213-1.182,5.94,5.94,0,0,1,.355-1.949,6.282,6.282,0,0,1,.761-1.5,4.246,4.246,0,0,1,.926-.973,1.686,1.686,0,0,1,.881-.373q.792-.042,1.01.373a1.578,1.578,0,0,1,.18.852,6.729,6.729,0,0,1-.473,1.829,24.467,24.467,0,0,1-1.166,2.554c.1.038.217.073.34.108a1.3,1.3,0,0,0,.428.042,6.554,6.554,0,0,0,1.853-.342,7.459,7.459,0,0,0,1.428-.666,5.88,5.88,0,0,0,1.027-.787q.422-.412.684-.675a.522.522,0,0,1,.355-.206.482.482,0,0,1,.308.08.335.335,0,0,1,.134.276.655.655,0,0,1-.163.416,8.583,8.583,0,0,1-2.548,2.349,7.605,7.605,0,0,1-3.613,1.025,3.924,3.924,0,0,1-.457-.007A3.209,3.209,0,0,1,449.791,283.845Z" transform="translate(-92.557 -29.865)" fill="#43b02a"/>
    <path id="Path_799" data-name="Path 799" d="M474.534,281.575a24.1,24.1,0,0,1-1.951,2.762,19.352,19.352,0,0,1-2.339,2.423,13.445,13.445,0,0,1-2.558,1.761,6.211,6.211,0,0,1-2.585.745,3.7,3.7,0,0,1-1.451-.262,4.1,4.1,0,0,1-1.453-.951,5.014,5.014,0,0,1-1.1-1.737,6.361,6.361,0,0,1-.357-2.649,8.49,8.49,0,0,1,.642-2.746,12.347,12.347,0,0,1,1.485-2.692,9.235,9.235,0,0,1,2.069-2.073,4.4,4.4,0,0,1,2.385-.892,2.109,2.109,0,0,1,1.7.521,1.929,1.929,0,0,1,.521,1.452,4.509,4.509,0,0,1-.454,1.808,7.247,7.247,0,0,1-.984,1.519,10.9,10.9,0,0,1-1.236,1.246c-.44.375-.856.724-1.246,1.033-.426.334-.841.65-1.232.951s-.731.573-1.024.817a3.477,3.477,0,0,0,.334,1.3,2.578,2.578,0,0,0,.645.835,2.157,2.157,0,0,0,.852.431,3.321,3.321,0,0,0,.959.1,4.177,4.177,0,0,0,2.118-.77,14.867,14.867,0,0,0,2.124-1.723,25.056,25.056,0,0,0,1.916-2.074q.881-1.074,1.458-1.85a.812.812,0,0,1,.428-.314.421.421,0,0,1,.367.047.459.459,0,0,1,.151.371A1.214,1.214,0,0,1,474.534,281.575Zm-7.987-4.487a1.541,1.541,0,0,0-.853.414,4.61,4.61,0,0,0-.938,1.126,9.422,9.422,0,0,0-.831,1.765,10.265,10.265,0,0,0-.527,2.363c.233-.2.486-.4.762-.617s.546-.439.819-.681a8.606,8.606,0,0,0,1.739-1.9,3.209,3.209,0,0,0,.517-1.372,1.309,1.309,0,0,0-.161-.856.587.587,0,0,0-.526-.245Z" transform="translate(-99.205 -29.365)" fill="#43b02a"/>
    <path id="Path_800" data-name="Path 800" d="M496.913,291.752c-.087.5-.19,1.136-.315,1.892s-.269,1.557-.434,2.4-.357,1.679-.579,2.513a18.23,18.23,0,0,1-.752,2.252,6.818,6.818,0,0,1-.935,1.646,1.572,1.572,0,0,1-1.178.669,2.507,2.507,0,0,1-1.715-.551,5.138,5.138,0,0,1-1.239-1.492,7.781,7.781,0,0,1-.779-1.964,9.627,9.627,0,0,1-.3-1.964,8.645,8.645,0,0,1,.135-2.092,4.783,4.783,0,0,1,.679-1.609,10.514,10.514,0,0,1,1.373-1.649q.876-.877,2.251-2.18.673-.651,1.288-1.236t1.175-1.075q.131-.63.249-1.183c.079-.369.143-.7.194-.994a7.547,7.547,0,0,1-1.829,1.911,4.4,4.4,0,0,1-2.5.838,2.431,2.431,0,0,1-2.145-1.132,6.451,6.451,0,0,1-.932-3.525,9.883,9.883,0,0,1,.326-2.678,11.518,11.518,0,0,1,1.113-2.865,8.1,8.1,0,0,1,1.869-2.293,4.075,4.075,0,0,1,2.558-1,1.946,1.946,0,0,1,1.167.307,3.136,3.136,0,0,1,.853.834,4.467,4.467,0,0,1,.552,1.08,9.177,9.177,0,0,1,.309,1.072,2.58,2.58,0,0,0,.078-.395,1.674,1.674,0,0,1,.081-.363,3.556,3.556,0,0,1,.639-1.478,1.526,1.526,0,0,1,1.13-.427,1.5,1.5,0,0,1,.718.134c.2.1.3.19.3.273-.094.233-.17.414-.228.539s-.114.26-.171.4a4.109,4.109,0,0,0-.166.522q-.082.317-.215.916-.055.222-.2,1.026t-.367,1.909q-.224,1.1-.47,2.429t-.48,2.587a15.879,15.879,0,0,0,1.719-1.275q.887-.746,1.683-1.526t1.413-1.465a9.6,9.6,0,0,0,.91-1.14,1.542,1.542,0,0,1,.531-.548.816.816,0,0,1,.528-.125.328.328,0,0,1,.281.276,1,1,0,0,1-.179.647,13.8,13.8,0,0,1-1.637,2.289,28.625,28.625,0,0,1-1.987,2.064,25.5,25.5,0,0,1-1.979,1.691,13.393,13.393,0,0,0-1.642,1.2,8.576,8.576,0,0,0-.441,2.3C497.1,290.735,497,291.27,496.913,291.752Zm-4.893,8.54q.6-.022.942-.959a21.813,21.813,0,0,0,.71-2.549q.077-.38.219-1.09c.094-.474.207-1.014.336-1.627s.265-1.269.4-1.974.284-1.416.441-2.132l-.483.472a6.446,6.446,0,0,0-.509.566l-1.239,1.313a9.693,9.693,0,0,0-1.055,1.322,6.036,6.036,0,0,0-.717,1.483,5.3,5.3,0,0,0-.221,1.828,15.436,15.436,0,0,0,.135,1.689,4.752,4.752,0,0,0,.247,1.027,1.067,1.067,0,0,0,.349.5A.727.727,0,0,0,492.02,300.292Zm.88-14.583a2.244,2.244,0,0,0,1.184-.386,5.48,5.48,0,0,0,.987-.833,5.606,5.606,0,0,0,.728-.949,8.324,8.324,0,0,0,.429-.768c.079-.179.163-.445.264-.762a7.036,7.036,0,0,0,.229-.916,3.2,3.2,0,0,0,.05-.786c-.017-.231-.1-.351-.24-.369a.405.405,0,0,1-.3-.241,2.2,2.2,0,0,1-.183-.493,3.544,3.544,0,0,1-.094-.562c-.018-.188-.038-.355-.062-.5a3.632,3.632,0,0,0-.569-1.581,1.029,1.029,0,0,0-.839-.474,2.122,2.122,0,0,0-1.424.675,6.057,6.057,0,0,0-1.161,1.655,9.6,9.6,0,0,0-.76,2.191,8.98,8.98,0,0,0-.224,2.251,5.16,5.16,0,0,0,.437,2.1A1.5,1.5,0,0,0,492.9,285.709Z" transform="translate(-108.674 -29.076)" fill="#43b02a"/>
    <path id="Path_801" data-name="Path 801" d="M525.538,280.116c-.278.413-.628.948-1.062,1.573s-.879,1.252-1.341,1.878-.914,1.2-1.356,1.722a6.987,6.987,0,0,1-1.111,1.107,3.108,3.108,0,0,1-.69.33,3.583,3.583,0,0,1-.8.175,2.7,2.7,0,0,1-.771-.029,1.653,1.653,0,0,1-.642-.252,1.568,1.568,0,0,1-.47-.616,5.644,5.644,0,0,1-.309-.9,5.319,5.319,0,0,1-.141-1.408,6.485,6.485,0,0,1-1.555,1.968,6.994,6.994,0,0,1-1.638,1.032,5.726,5.726,0,0,1-1.8.456,1.7,1.7,0,0,1-.916-.272,2.313,2.313,0,0,1-.842-.917,4.5,4.5,0,0,1-.472-1.648,7.993,7.993,0,0,1,.172-2.437,12.076,12.076,0,0,1,1.253-3.516,13.723,13.723,0,0,1,1.949-2.735,8.983,8.983,0,0,1,2.117-1.734,3.226,3.226,0,0,1,1.755-.545,3.181,3.181,0,0,1,1.353.468,1.479,1.479,0,0,1,.585.911,2.3,2.3,0,0,1-.464,1.625,7.186,7.186,0,0,1,.712-.142q.219-.032.44-.042a.539.539,0,0,1,.245.025.654.654,0,0,1,.036.266,5.105,5.105,0,0,1-.074.739q-.08.534-.24,1.448t-.431,2.362c-.037.188-.068.363-.094.52s-.052.314-.08.472-.057.342-.092.551-.1.483-.135.786a3.29,3.29,0,0,0,0,.612,2.31,2.31,0,0,0,.121.608,1,1,0,0,0,.3.449.831.831,0,0,0,.563.159,1.42,1.42,0,0,0,.778-.41,9.175,9.175,0,0,0,1.008-1.025q.53-.623,1.107-1.372t1.077-1.45c.333-.466.635-.88.9-1.241s.456-.637.576-.795a.859.859,0,0,1,.48-.339.323.323,0,0,1,.367.135.776.776,0,0,1,.058.564A2.547,2.547,0,0,1,525.538,280.116Zm-8.861,1.576q.134-.628.328-1.481t.325-1.639q.134-.787.2-1.306c.043-.346.023-.505-.057-.485a2.527,2.527,0,0,0-.332.1,1.721,1.721,0,0,1-.393.1,3.9,3.9,0,0,0-.484.106,2.973,2.973,0,0,0,.27-.838,1.888,1.888,0,0,0,0-.517.786.786,0,0,0-.13-.342q-.344-.274-1.161.484a10.571,10.571,0,0,0-1.86,2.759,8.472,8.472,0,0,0-.682,1.759,11.235,11.235,0,0,0-.332,1.75,6.206,6.206,0,0,0-.007,1.427,1.414,1.414,0,0,0,.264.793.972.972,0,0,0,.766.309,2,2,0,0,0,.856-.274,4.958,4.958,0,0,0,.862-.635,7.145,7.145,0,0,0,.768-.8,7.686,7.686,0,0,0,.557-.766,1.718,1.718,0,0,0,.246-.509Z" transform="translate(-115.787 -28.722)" fill="#43b02a"/>
    <path id="Path_802" data-name="Path 802" d="M528.486,285.284a1.069,1.069,0,0,1-.459.464.586.586,0,0,1-.453.043.435.435,0,0,1-.263-.324.958.958,0,0,1,.107-.628q.085-.19.389-.855t.723-1.6l.913-2.025q.493-1.093.942-2.073t.831-1.757c.253-.518.439-.891.556-1.125a6.4,6.4,0,0,1-.465-.445,1.317,1.317,0,0,1-.195-.608,2.293,2.293,0,0,1,.161-1.069,6.433,6.433,0,0,1,.616-1.285,5.229,5.229,0,0,1,.863-1.068,1.449,1.449,0,0,1,.937-.456,1.3,1.3,0,0,1,1.215.543,2.868,2.868,0,0,1,.433,1.152,3.381,3.381,0,0,1-.045,1.035,3.06,3.06,0,0,1-.437,1.136,1.972,1.972,0,0,0,.245.135,1.112,1.112,0,0,0,.489.071,2.565,2.565,0,0,0,.684-.075,2.227,2.227,0,0,1,.623-.073,1.326,1.326,0,0,1,.857.253,2.141,2.141,0,0,1,.558.649,3.385,3.385,0,0,1,.332.842,6.3,6.3,0,0,1,.15.828,2.71,2.71,0,0,1-.369,1.635q-.473.853-1.154,1.868a16.239,16.239,0,0,0-.825,1.425,2.436,2.436,0,0,0-.34,1.416,1.673,1.673,0,0,0,.225.655c.1.165.388.244.852.237a2.175,2.175,0,0,0,1.13-.41,8.675,8.675,0,0,0,1.257-1.023,17.724,17.724,0,0,0,1.268-1.367q.628-.745,1.164-1.457t.908-1.283c.247-.379.444-.655.551-.822a.863.863,0,0,1,.39-.351.506.506,0,0,1,.426-.006.475.475,0,0,1,.232.375,1.22,1.22,0,0,1-.218.755q-.179.314-.61,1.011t-1.042,1.549q-.611.852-1.355,1.759a16.166,16.166,0,0,1-1.566,1.653,9.946,9.946,0,0,1-1.646,1.233,3.244,3.244,0,0,1-1.58.493,2.468,2.468,0,0,1-1.306-.291,2.752,2.752,0,0,1-.846-.754,2.98,2.98,0,0,1-.472-.993,3.294,3.294,0,0,1-.124-1.018,2.768,2.768,0,0,1,.179-.8q.159-.426.379-.885t.468-.917c.165-.306.318-.607.455-.9q.5-.918.807-1.566a2.546,2.546,0,0,0,.3-1.087,1.016,1.016,0,0,0-.129-.5.419.419,0,0,0-.4-.213,1.4,1.4,0,0,0-.258.02.694.694,0,0,1-.152.019c-.071,0-.142.009-.213.019a4.076,4.076,0,0,1-.41.024,1.578,1.578,0,0,1-.671-.114,3.2,3.2,0,0,0-.521-.179q-.118.22-.53.949t-.955,1.712q-.544.982-1.144,2.061t-1.126,2.014l-.891,1.586Q528.569,285.147,528.486,285.284Z" transform="translate(-121.794 -27.744)" fill="#43b02a"/>
    <path id="Path_803" data-name="Path 803" d="M559.275,275.1c-.1.647-.188,1.266-.274,1.851q-.112.7-.155,1.411a1.587,1.587,0,0,0,.282,1.126.881.881,0,0,0,.669.34,1.948,1.948,0,0,0,1.041-.449,12.306,12.306,0,0,0,1.31-1.105q.694-.663,1.388-1.451t1.282-1.5q.589-.707,1-1.243c.273-.357.458-.587.56-.691a.683.683,0,0,1,.378-.221.4.4,0,0,1,.32.062.418.418,0,0,1,.123.344,1.247,1.247,0,0,1-.242.628q-.362.6-.935,1.4t-1.267,1.651q-.693.852-1.461,1.67a16.283,16.283,0,0,1-1.536,1.451,10.149,10.149,0,0,1-1.475,1.032,2.724,2.724,0,0,1-1.282.4,1.417,1.417,0,0,1-.8-.244,2.72,2.72,0,0,1-.687-.652,3.231,3.231,0,0,1-.478-.9,2.461,2.461,0,0,1-.145-1c.013-.141.045-.4.083-.753a13.093,13.093,0,0,1-2.535,2.361,4.466,4.466,0,0,1-2.456.891,2.188,2.188,0,0,1-.91-.208,2.25,2.25,0,0,1-.872-.709,4.147,4.147,0,0,1-.639-1.309,5.93,5.93,0,0,1-.209-1.974A11.5,11.5,0,0,1,550,273.85a10.775,10.775,0,0,1,1.5-2.855,7.566,7.566,0,0,1,2.079-1.938,4.535,4.535,0,0,1,2.354-.73,1.754,1.754,0,0,1,.947.258,2.576,2.576,0,0,1,.737.683,4.307,4.307,0,0,1,.51.919,5.823,5.823,0,0,1,.3.939q.2-.911.381-1.79c.117-.585.229-1.15.352-1.664.183-.766.4-1.62.621-2.513.192-.77.426-1.664.683-2.67s.547-2.064.866-3.171a2.706,2.706,0,0,1,.58-.381,4.1,4.1,0,0,1,.52-.191,1.91,1.91,0,0,1,.52-.1,1.826,1.826,0,0,1,.553.075.752.752,0,0,1,.415.4,2.861,2.861,0,0,1,.235.988,13.33,13.33,0,0,1,.008,1.787,15.435,15.435,0,0,1-.457,3.011,29.619,29.619,0,0,1-1.064,3.376q-.659,1.743-1.514,3.488A36.17,36.17,0,0,1,559.275,275.1Zm-1.788.422a6.21,6.21,0,0,0,.218-1.194q.1-.6.247-1.225a1.231,1.231,0,0,0-.106.065.954.954,0,0,1-.106.063c-.222.108-.374.1-.457-.011a.976.976,0,0,1-.126-.547q0-.188-.037-.673a5.14,5.14,0,0,0-.176-1,2.836,2.836,0,0,0-.42-.905.882.882,0,0,0-.766-.385,2.075,2.075,0,0,0-1.422.753,9.561,9.561,0,0,0-1.349,1.8,12.087,12.087,0,0,0-1.037,2.254,7.716,7.716,0,0,0-.46,2.137,3.775,3.775,0,0,0,.391,2.159,1.308,1.308,0,0,0,1.159.645,2.2,2.2,0,0,0,1.192-.453,8.552,8.552,0,0,0,1.261-1.08,16.9,16.9,0,0,0,1.139-1.3,8.506,8.506,0,0,0,.855-1.107Z" transform="translate(-129.271 -23.734)" fill="#43b02a"/>
    <path id="Path_804" data-name="Path 804" d="M586.187,279.262a24.175,24.175,0,0,1-2.071,2.673,19.22,19.22,0,0,1-2.442,2.316,13.382,13.382,0,0,1-2.633,1.648,6.23,6.23,0,0,1-2.616.632,3.68,3.68,0,0,1-1.436-.326,4.1,4.1,0,0,1-1.411-1.013,5.01,5.01,0,0,1-1.023-1.782,6.343,6.343,0,0,1-.24-2.664,8.442,8.442,0,0,1,.763-2.715,12.321,12.321,0,0,1,1.6-2.623,9.206,9.206,0,0,1,2.154-1.982,4.4,4.4,0,0,1,2.423-.788,2.111,2.111,0,0,1,1.676.6,1.93,1.93,0,0,1,.457,1.477,4.53,4.53,0,0,1-.534,1.787,7.218,7.218,0,0,1-1.049,1.474,10.8,10.8,0,0,1-1.29,1.192c-.454.355-.885.685-1.288.975-.441.314-.869.612-1.273.9s-.756.541-1.059.772a3.511,3.511,0,0,0,.278,1.315,2.58,2.58,0,0,0,.609.86,2.146,2.146,0,0,0,.834.468,3.333,3.333,0,0,0,.954.139,4.2,4.2,0,0,0,2.147-.68,14.886,14.886,0,0,0,2.2-1.629,25.169,25.169,0,0,0,2-1.989q.926-1.033,1.538-1.783a.814.814,0,0,1,.442-.3.416.416,0,0,1,.364.063.458.458,0,0,1,.135.377A1.2,1.2,0,0,1,586.187,279.262Zm-7.783-4.834a1.547,1.547,0,0,0-.868.378,4.558,4.558,0,0,0-.988,1.083,9.514,9.514,0,0,0-.907,1.727,10.3,10.3,0,0,0-.628,2.338q.363-.283.788-.583c.282-.2.565-.414.849-.644a8.71,8.71,0,0,0,1.822-1.822,3.217,3.217,0,0,0,.576-1.349,1.318,1.318,0,0,0-.123-.862.59.59,0,0,0-.52-.266Z" transform="translate(-137.053 -28.478)" fill="#43b02a"/>
    <path id="Path_805" data-name="Path 805" d="M598.675,286.962a2.493,2.493,0,0,1-1.193-.274,2.233,2.233,0,0,1-.8-.71,2.442,2.442,0,0,1-.387-1.021,3.386,3.386,0,0,1,.067-1.238c.065-.288.165-.684.31-1.173s.294-1.023.449-1.6.3-1.147.435-1.722a11.646,11.646,0,0,0,.27-1.565,3.461,3.461,0,0,0-.053-1.161.52.52,0,0,0-.515-.458,1.874,1.874,0,0,0-1.006.324,5.6,5.6,0,0,0-1.054.887,12.835,12.835,0,0,0-1.07,1.3,10.407,10.407,0,0,0-1.054,1.516,10.57,10.57,0,0,0-.462,1.864q-.184.8-.323,1.441c-.091.428-.179.8-.261,1.128s-.145.646-.214.924a1.182,1.182,0,0,1-.547.61,4.717,4.717,0,0,1-.969.484,2.654,2.654,0,0,1-.893.186c-.251,0-.351-.1-.317-.282.023-.122.086-.408.2-.846s.245-.956.4-1.55.309-1.228.472-1.9.325-1.311.459-1.912c.107-.473.217-1.014.338-1.6.1-.5.231-1.086.385-1.755s.334-1.4.539-2.192a1.9,1.9,0,0,1,.443-.3,3.713,3.713,0,0,1,.472-.17,2.16,2.16,0,0,1,.519-.124,2.612,2.612,0,0,1,.487.034,2.369,2.369,0,0,1,.441.112,1.249,1.249,0,0,1,.41.237c-.061.147-.135.349-.215.611s-.171.538-.247.829c-.087.327-.185.679-.309,1.032a14.073,14.073,0,0,1,.9-1.14,8.044,8.044,0,0,1,1.1-1.045,5.863,5.863,0,0,1,1.269-.76,3.333,3.333,0,0,1,1.373-.289,1.677,1.677,0,0,1,1.032.352,2.275,2.275,0,0,1,.708.961,4.339,4.339,0,0,1,.293,1.46,5.89,5.89,0,0,1-.242,1.848c-.139.55-.208.825-.346,1.376q-.157.657-.391,1.549c-.156.594-.369,1.256-.575,1.955a3.314,3.314,0,0,0-.145,1.189.514.514,0,0,0,.515.512.536.536,0,0,0,.073-.006,2.412,2.412,0,0,0,1.384-.679,14.708,14.708,0,0,0,1.7-1.646q.858-.964,1.627-1.975t1.172-1.633a1.562,1.562,0,0,1,.522-.527.364.364,0,0,1,.38-.028c.09.065.134.206.134.425a2.023,2.023,0,0,1-.252.829q-.218.436-.666,1.152t-1.063,1.526q-.614.808-1.319,1.633a14.484,14.484,0,0,1-1.468,1.491,8.957,8.957,0,0,1-1.506,1.086A2.859,2.859,0,0,1,598.675,286.962Z" transform="translate(-142.758 -28.841)" fill="#43b02a"/>
    <path id="Path_806" data-name="Path 806" d="M614.626,270.346a1.164,1.164,0,0,1,.583-.307,7.951,7.951,0,0,1,.887-.193,6.618,6.618,0,0,1,.838-.084,1.454,1.454,0,0,1,.441.023,2.49,2.49,0,0,1-.16.655q-.191.628-.476,1.467t-.6,1.733q-.316.889-.474,1.452c-.1.375-.233.8-.379,1.264s-.279.928-.4,1.376a8.987,8.987,0,0,0-.242,1.266,1.843,1.843,0,0,0,.081.91,1.376,1.376,0,0,0,.327.521.624.624,0,0,0,.392.146,2.814,2.814,0,0,0,1.537-.671,17.278,17.278,0,0,0,1.9-1.621q.968-.942,1.8-1.918a19.916,19.916,0,0,0,1.239-1.564,1.166,1.166,0,0,1,.509-.4.426.426,0,0,1,.425.038.519.519,0,0,1,.176.41,1.253,1.253,0,0,1-.209.655,16.777,16.777,0,0,1-1.46,2.061q-.959,1.193-2.036,2.289a18.772,18.772,0,0,1-2.1,1.868,3.336,3.336,0,0,1-1.66.793,2.321,2.321,0,0,1-1.012-.184,3.223,3.223,0,0,1-1.573-1.427,2.526,2.526,0,0,1-.292-1.024,14.285,14.285,0,0,1,.022-2.146,27.029,27.029,0,0,1,.363-2.786,23.329,23.329,0,0,1,.652-2.7A5.887,5.887,0,0,1,614.626,270.346Zm4.3-6.622a1.942,1.942,0,0,1-.362.668,2.329,2.329,0,0,1-.588.526,1.865,1.865,0,0,1-.661.258.617.617,0,0,1-.548-.135,1.5,1.5,0,0,1-.659-1.09,1.912,1.912,0,0,1,.289-1.093,3.113,3.113,0,0,1,.776-.868,1.964,1.964,0,0,1,.8-.413.635.635,0,0,1,.564.148,1.3,1.3,0,0,1,.344.538,2.561,2.561,0,0,1,.042,1.46Z" transform="translate(-150.761 -24.723)" fill="#43b02a"/>
    <path id="Path_807" data-name="Path 807" d="M633.194,287.428a2.516,2.516,0,0,1-1.189-.29,2.244,2.244,0,0,1-.788-.721,2.427,2.427,0,0,1-.374-1.025,3.339,3.339,0,0,1,.084-1.237c.069-.287.174-.682.325-1.169s.308-1.019.471-1.591.314-1.142.458-1.716a11.694,11.694,0,0,0,.289-1.561,3.444,3.444,0,0,0-.039-1.161.519.519,0,0,0-.508-.466,1.87,1.87,0,0,0-1.01.31,5.578,5.578,0,0,0-1.067.875,12.785,12.785,0,0,0-1.086,1.282,5.185,5.185,0,0,0-1.56,3.36q-.2.8-.342,1.436t-.276,1.122c-.087.322-.153.643-.227.92a1.18,1.18,0,0,1-.555.6,4.685,4.685,0,0,1-.975.47,2.643,2.643,0,0,1-.9.176c-.251,0-.35-.1-.314-.287.025-.122.09-.407.209-.844s.257-.953.417-1.545.326-1.223.5-1.89.341-1.307.484-1.9c.114-.473.231-1.012.359-1.593.11-.5.245-1.084.408-1.75s.352-1.394.568-2.185a1.951,1.951,0,0,1,.448-.291,3.759,3.759,0,0,1,.476-.165,2.186,2.186,0,0,1,.52-.116,2.666,2.666,0,0,1,.487.039,2.39,2.39,0,0,1,.439.118,1.266,1.266,0,0,1,.408.242c-.064.146-.139.347-.225.608s-.18.538-.258.826c-.09.326-.2.677-.323,1.028a13.969,13.969,0,0,1,.918-1.128,8.025,8.025,0,0,1,1.115-1.032,5.855,5.855,0,0,1,1.279-.744,3.341,3.341,0,0,1,1.377-.269,1.676,1.676,0,0,1,1.029.365,2.281,2.281,0,0,1,.7.971,4.321,4.321,0,0,1,.273,1.463,5.867,5.867,0,0,1-.266,1.843l-.364,1.372q-.165.655-.411,1.543c-.164.592-.385,1.253-.6,1.948a3.282,3.282,0,0,0-.161,1.189.513.513,0,0,0,.507.519.53.53,0,0,0,.073,0,2.425,2.425,0,0,0,1.391-.661,14.856,14.856,0,0,0,1.718-1.625q.869-.952,1.653-1.954t1.193-1.617a1.562,1.562,0,0,1,.529-.52.368.368,0,0,1,.381-.024c.09.065.131.208.126.427a2.029,2.029,0,0,1-.263.825q-.225.433-.681,1.143t-1.083,1.51q-.628.8-1.341,1.615a14.665,14.665,0,0,1-1.488,1.472,8.926,8.926,0,0,1-1.521,1.065A2.859,2.859,0,0,1,633.194,287.428Z" transform="translate(-154.472 -28.998)" fill="#43b02a"/>
    <path id="Path_808" data-name="Path 808" d="M653.722,291.344c-.116.5-.257,1.122-.427,1.87s-.365,1.537-.578,2.368-.457,1.654-.73,2.472a17.74,17.74,0,0,1-.885,2.2,6.788,6.788,0,0,1-1.032,1.588,1.575,1.575,0,0,1-1.216.6,2.508,2.508,0,0,1-1.679-.653,5.164,5.164,0,0,1-1.148-1.564,7.8,7.8,0,0,1-.66-2.007,9.625,9.625,0,0,1-.18-1.979,8.7,8.7,0,0,1,.258-2.079,4.8,4.8,0,0,1,.776-1.566,10.43,10.43,0,0,1,1.471-1.565q.926-.824,2.378-2.042.711-.608,1.361-1.156t1.237-1q.168-.621.32-1.167t.254-.981a7.571,7.571,0,0,1-1.942,1.8,4.394,4.394,0,0,1-2.546.687,2.431,2.431,0,0,1-2.074-1.257,6.45,6.45,0,0,1-.718-3.575,9.949,9.949,0,0,1,.487-2.655,11.518,11.518,0,0,1,1.283-2.791,8.08,8.08,0,0,1,2-2.176,4.085,4.085,0,0,1,2.614-.842,1.958,1.958,0,0,1,1.149.376,3.145,3.145,0,0,1,.8.884,4.517,4.517,0,0,1,.487,1.112,9.1,9.1,0,0,1,.242,1.089,2.379,2.379,0,0,0,.1-.39,1.654,1.654,0,0,1,.1-.359,3.572,3.572,0,0,1,.725-1.436,1.524,1.524,0,0,1,1.154-.359,1.5,1.5,0,0,1,.711.18c.19.112.284.207.281.291-.108.225-.194.4-.259.525s-.13.253-.2.387a4.042,4.042,0,0,0-.2.511c-.068.207-.157.508-.27.9q-.068.217-.258,1.012t-.482,1.884q-.289,1.089-.616,2.4t-.634,2.554a15.954,15.954,0,0,0,1.8-1.171q.93-.693,1.773-1.421t1.5-1.38a9.612,9.612,0,0,0,.977-1.082,1.54,1.54,0,0,1,.564-.516.81.81,0,0,1,.535-.09.326.326,0,0,1,.263.291.994.994,0,0,1-.218.636,13.8,13.8,0,0,1-1.772,2.186q-1.035,1.05-2.109,1.942a25.529,25.529,0,0,1-2.078,1.57,13.186,13.186,0,0,0-1.711,1.095,8.611,8.611,0,0,0-.579,2.273C653.977,290.341,653.834,290.865,653.722,291.344Zm-5.4,8.231q.6.015,1-.9a21.83,21.83,0,0,0,.861-2.5q.1-.374.284-1.075t.434-1.6q.25-.9.519-1.946t.569-2.1c-.165.141-.335.289-.51.441a6.7,6.7,0,0,0-.543.535q-.681.642-1.316,1.237a9.8,9.8,0,0,0-1.133,1.257,6.062,6.062,0,0,0-.8,1.436,5.273,5.273,0,0,0-.33,1.812,15.767,15.767,0,0,0,.034,1.694,4.783,4.783,0,0,0,.185,1.039,1.066,1.066,0,0,0,.318.526A.721.721,0,0,0,648.325,299.575Zm1.753-14.5a2.245,2.245,0,0,0,1.205-.315,5.5,5.5,0,0,0,1.037-.772,5.636,5.636,0,0,0,.782-.9,8.352,8.352,0,0,0,.476-.739c.09-.173.188-.434.309-.744a6.958,6.958,0,0,0,.284-.9,3.208,3.208,0,0,0,.1-.78c0-.231-.079-.356-.218-.382a.4.4,0,0,1-.281-.259,2.193,2.193,0,0,1-.153-.507,3.478,3.478,0,0,1-.061-.566c-.005-.188-.015-.356-.032-.5a3.619,3.619,0,0,0-.474-1.612,1.025,1.025,0,0,0-.807-.523,2.125,2.125,0,0,0-1.463.589,6.046,6.046,0,0,0-1.257,1.582,9.573,9.573,0,0,0-.89,2.142,8.919,8.919,0,0,0-.359,2.233,5.174,5.174,0,0,0,.311,2.124,1.49,1.49,0,0,0,1.493.838Z" transform="translate(-161.794 -28.899)" fill="#43b02a"/>
  </g>
</svg>
